<mxfile host="app.diagrams.net" modified="2023-08-16T08:14:56.682Z" agent="5.0 (Windows NT 10.0; Win64; x64) AppleWebKit/537.36 (KHTML, like Gecko) Chrome/116.0.0.0 Safari/537.36 Edg/116.0.1938.43" etag="h6CZul-VqiXXBfjKABoi" version="20.5.1" type="github">
  <diagram id="8PhxjJXDgIxe4kGbG2KW" name="Page-1">
    <mxGraphModel dx="1440" dy="644" grid="1" gridSize="10" guides="1" tooltips="1" connect="1" arrows="1" fold="1" page="1" pageScale="1" pageWidth="850" pageHeight="1100" math="0" shadow="0">
      <root>
        <mxCell id="0" />
        <mxCell id="1" parent="0" />
        <mxCell id="ys190QE65R-xxRE4n0ma-12" value="" style="strokeColor=#dddddd;shadow=1;strokeWidth=1;rounded=1;absoluteArcSize=1;arcSize=0;" vertex="1" parent="1">
          <mxGeometry x="442" y="210" width="113" height="70" as="geometry" />
        </mxCell>
        <mxCell id="ys190QE65R-xxRE4n0ma-13" value="&lt;b&gt;&lt;font color=&quot;#ff0000&quot;&gt;Firebase Cloud Message&lt;/font&gt;&lt;/b&gt;" style="sketch=0;dashed=0;connectable=0;html=1;fillColor=#5184F3;strokeColor=none;shape=mxgraph.gcp2.firebase;part=1;labelPosition=right;verticalLabelPosition=middle;align=left;verticalAlign=middle;spacingLeft=5;fontColor=#999999;fontSize=12;" vertex="1" parent="ys190QE65R-xxRE4n0ma-12">
          <mxGeometry width="32.4" height="45" relative="1" as="geometry">
            <mxPoint x="5" y="7" as="offset" />
          </mxGeometry>
        </mxCell>
        <mxCell id="ys190QE65R-xxRE4n0ma-19" value="" style="endArrow=classic;html=1;rounded=0;entryX=0;entryY=0.5;entryDx=0;entryDy=0;" edge="1" parent="1">
          <mxGeometry width="50" height="50" relative="1" as="geometry">
            <mxPoint x="180" y="227.11940298507466" as="sourcePoint" />
            <mxPoint x="440" y="231" as="targetPoint" />
          </mxGeometry>
        </mxCell>
        <mxCell id="ys190QE65R-xxRE4n0ma-21" value="&lt;font&gt;&lt;b&gt;Register Order And Client Information&lt;/b&gt;&lt;/font&gt;" style="edgeLabel;html=1;align=center;verticalAlign=middle;resizable=0;points=[];fontColor=#FF0000;" vertex="1" connectable="0" parent="ys190QE65R-xxRE4n0ma-19">
          <mxGeometry x="-0.1998" relative="1" as="geometry">
            <mxPoint as="offset" />
          </mxGeometry>
        </mxCell>
        <mxCell id="ys190QE65R-xxRE4n0ma-23" value="" style="shape=image;html=1;verticalAlign=top;verticalLabelPosition=bottom;labelBackgroundColor=#ffffff;imageAspect=0;aspect=fixed;image=https://cdn4.iconfinder.com/data/icons/smart-phones-technologies/128/android-phone-color.png" vertex="1" parent="1">
          <mxGeometry x="22" y="165" width="150" height="150" as="geometry" />
        </mxCell>
        <mxCell id="ys190QE65R-xxRE4n0ma-32" value="&lt;b&gt;&lt;font style=&quot;font-size: 17px;&quot; color=&quot;#ff3333&quot;&gt;Push the Notification Message&lt;/font&gt;&lt;/b&gt;" style="edgeStyle=orthogonalEdgeStyle;rounded=0;orthogonalLoop=1;jettySize=auto;html=1;entryX=0.5;entryY=1;entryDx=0;entryDy=0;" edge="1" parent="1" source="ys190QE65R-xxRE4n0ma-25" target="ys190QE65R-xxRE4n0ma-12">
          <mxGeometry relative="1" as="geometry">
            <mxPoint x="498" y="340" as="targetPoint" />
          </mxGeometry>
        </mxCell>
        <mxCell id="ys190QE65R-xxRE4n0ma-25" value="&lt;font color=&quot;#ff0000&quot;&gt;Herbalife Hub Backend&lt;/font&gt;" style="aspect=fixed;html=1;points=[];align=center;image;fontSize=12;image=img/lib/azure2/compute/App_Services.svg;" vertex="1" parent="1">
          <mxGeometry x="463" y="450" width="70" height="70" as="geometry" />
        </mxCell>
        <mxCell id="ys190QE65R-xxRE4n0ma-33" value="" style="endArrow=none;dashed=1;html=1;rounded=0;" edge="1" parent="1">
          <mxGeometry width="50" height="50" relative="1" as="geometry">
            <mxPoint x="41" y="560" as="sourcePoint" />
            <mxPoint x="761" y="560" as="targetPoint" />
          </mxGeometry>
        </mxCell>
        <mxCell id="ys190QE65R-xxRE4n0ma-34" value="" style="endArrow=none;dashed=1;html=1;rounded=0;" edge="1" parent="1">
          <mxGeometry width="50" height="50" relative="1" as="geometry">
            <mxPoint x="40" y="440" as="sourcePoint" />
            <mxPoint x="760" y="440" as="targetPoint" />
          </mxGeometry>
        </mxCell>
        <mxCell id="ys190QE65R-xxRE4n0ma-35" value="&lt;a style=&quot;color: rgb(0, 0, 0); font-family: &amp;quot;Microsoft YaHei&amp;quot;; font-size: medium; font-style: normal; font-variant-ligatures: normal; font-variant-caps: normal; font-weight: 400; letter-spacing: normal; orphans: 2; text-align: start; text-indent: 0px; text-transform: none; widows: 2; word-spacing: 0px; -webkit-text-stroke-width: 0px; text-decoration-thickness: initial; text-decoration-style: initial; text-decoration-color: initial;&quot; data-slideid=&quot;&quot; data-shapeids=&quot;16&quot; data-sessionid=&quot;26ce0ee5-0c1c-ebff-c4d8-f2ef24aeb786&quot; data-clipservice-param=&quot;{&amp;quot;OEg&amp;quot;:[true]}&quot; data-clipboardasbytes-url=&quot;https://usc-powerpoint.officeapps.live.com/pods/GetClipboardBytes.ashx?Id=332f5e7d-26c7-4c86-85f7-3e619b19acf2&amp;amp;DC=PUS7&amp;amp;pkey=cac7324d-3e26-44e0-95f3-2db5cc26a3c5&amp;amp;wdwaccluster=PUS7&amp;amp;DataType=shape&quot; data-timestamp=&quot;Wed, 16 Aug 2023 07:49:28 GMT&quot; data-pkey=&quot;cac7324d-3e26-44e0-95f3-2db5cc26a3c5&quot; data-clipservice-isemptyplaceholder=&quot;false&quot; data-clipservice-cut=&quot;false&quot; data-clipservice-count=&quot;1&quot; data-clipservice-type=&quot;shape&quot; data-clipservice-dc=&quot;PUS7&quot; data-clipservice-location=&quot;n40agWybREKc8QlN3e5HzF9odHRwOi8vbXcxcGVwZjAwMDBmNGZmL3BvZHMvcG9kQ2xpcC5zdmM_UG9kU0lEPV8uXy5fLmQyNDlhM2FkLTJiZmEtMTQwMS1lMTllLTlkODMyYmViN2ZmZC0uLS4tLg2&quot; data-clipservice-version=&quot;0&quot; data-clipservice-ccpid=&quot;332f5e7d-26c7-4c86-85f7-3e619b19acf2&quot; data-copyfailedreason=&quot;0&quot; data-copystatus=&quot;32&quot; class=&quot;CIDc3308dac-9e75-4eb1-84ea-472c55e27cb5&quot;&gt;&amp;nbsp;&lt;/a&gt;" style="text;whiteSpace=wrap;html=1;" vertex="1" parent="1">
          <mxGeometry x="450" y="710" width="50" height="40" as="geometry" />
        </mxCell>
        <mxCell id="ys190QE65R-xxRE4n0ma-36" value="&lt;a style=&quot;color: rgb(0, 0, 0); font-family: &amp;quot;Microsoft YaHei&amp;quot;; font-size: medium; font-style: normal; font-variant-ligatures: normal; font-variant-caps: normal; font-weight: 400; letter-spacing: normal; orphans: 2; text-align: start; text-indent: 0px; text-transform: none; widows: 2; word-spacing: 0px; -webkit-text-stroke-width: 0px; text-decoration-thickness: initial; text-decoration-style: initial; text-decoration-color: initial;&quot; data-slideid=&quot;&quot; data-shapeids=&quot;20&quot; data-sessionid=&quot;26ce0ee5-0c1c-ebff-c4d8-f2ef24aeb786&quot; data-clipservice-param=&quot;{&amp;quot;OEg&amp;quot;:[true]}&quot; data-clipboardasbytes-url=&quot;https://usc-powerpoint.officeapps.live.com/pods/GetClipboardBytes.ashx?Id=7b91ce8e-5bb4-43fc-99e1-f4ee4b7eb672&amp;amp;DC=PUS7&amp;amp;pkey=b827c75c-fe85-426c-aecc-3718d32ca1ad&amp;amp;wdwaccluster=PUS7&amp;amp;DataType=shape&quot; data-timestamp=&quot;Wed, 16 Aug 2023 07:49:55 GMT&quot; data-pkey=&quot;b827c75c-fe85-426c-aecc-3718d32ca1ad&quot; data-clipservice-isemptyplaceholder=&quot;false&quot; data-clipservice-cut=&quot;false&quot; data-clipservice-count=&quot;1&quot; data-clipservice-type=&quot;shape&quot; data-clipservice-dc=&quot;PUS7&quot; data-clipservice-location=&quot;n40agWybREKc8QlN3e5HzF9odHRwOi8vbXcxcGVwZjAwMDBmNGZmL3BvZHMvcG9kQ2xpcC5zdmM_UG9kU0lEPV8uXy5fLmQyNDlhM2FkLTJiZmEtMTQwMS1lMTllLTlkODMyYmViN2ZmZC0uLS4tLg2&quot; data-clipservice-version=&quot;1&quot; data-clipservice-ccpid=&quot;7b91ce8e-5bb4-43fc-99e1-f4ee4b7eb672&quot; data-copyfailedreason=&quot;0&quot; data-copystatus=&quot;32&quot; class=&quot;CID21964e3c-bc0a-4065-8c51-b18634d22b24&quot;&gt;&amp;nbsp;&lt;/a&gt;" style="text;whiteSpace=wrap;html=1;" vertex="1" parent="1">
          <mxGeometry x="430" y="770" width="40" height="40" as="geometry" />
        </mxCell>
        <mxCell id="ys190QE65R-xxRE4n0ma-41" style="edgeStyle=orthogonalEdgeStyle;rounded=0;orthogonalLoop=1;jettySize=auto;html=1;entryX=0.506;entryY=1.054;entryDx=0;entryDy=0;entryPerimeter=0;" edge="1" parent="1" source="ys190QE65R-xxRE4n0ma-37" target="ys190QE65R-xxRE4n0ma-25">
          <mxGeometry relative="1" as="geometry" />
        </mxCell>
        <mxCell id="ys190QE65R-xxRE4n0ma-37" value="" style="shape=image;verticalLabelPosition=bottom;labelBackgroundColor=default;verticalAlign=top;aspect=fixed;imageAspect=0;image=data:image/png,iVBORw0KGgoAAAANSUhEUgAAATUAAAERCAYAAAAaIjAkAAAgAElEQVR4AeydB5hU1fnG7/bCAsv2XmgLS9te6SiiqFiiBhsi1r+9QhR7QaxRjGLsscWS2HuLRglGsMaChaJ0dtmdPnOn/P7Pd+7MsiqRzSgjw16e5zyzzNxy7nvPee/7tXM1zH8mAiYCJgK7EQLabnQt5qWYCJgImAhgkpo5CEwETAR2KwRMUtutbqd5MSYCJgImqZljwETARGC3QsAktd3qdpoXYyJgImCSmjkGTARMBHYrBExS261up3kxJgImAiapmWPARMBEYLdCwCS13ep2mhdjImAiYJKaOQZMBEwEdisETFLbrW6neTEmAiYCYZHaLU/fztDjqlRb/PzdXShe/7ebu76X383fDGhMXIyxYo6J6JsrXZM7iv4Im9Si6BrNrpoImAj0IgTCIjV54pr/TARMBHZfBMQai9Z/JqlF650z+20isBMRiGbhYpLaThwY5qFNBKIVgV5HatEsTaN1kJn9NhGIJAK9jtQiCa55LhMBE4HIIxDNwiUs8zPyEJtnNBEwETAR6BkCYZFaNLN4z2AxtzIRMBGIVgTCIrVotrej9UaZ/TYRiCQC0SxcTFKL5Egxz2UiECUIRLNwMUktSgaZ2U0TgUgi0OtILZqlaSQHhnkuE4FoRaDXkVq03iiz3yYCJgI9QyCahUtY5mfPYDG3MhEwETARiDwCYZFaNLN45CE2z2giYCIQSQTCIrVotrcjCa55LhOBaEUgmoWLSWrROurMfpsI7EQEolm4mKS2EweGeWgTgWhFoNeRWjRL02gdZGa/TQQiiUCvI7VIgmuey0TARCDyCESzcAnL/Iw8xOYZTQRMBEwEeoZAWKQWzSzeM1jMrUwETASiFYGwSC2a7e1ovVFmv00EIolANAsXk9QiOVLMc5kIRAkC0SxcTFKLkkFmdtNEIJII9DpSi2ZpGsmBYZ7LRCBaEeh1pBatN8rst4mAiUDPEIhm4RKW+dkzWMytTARMBEwEIo9AWKQWzSweeYjNM5oImAhEEoGwSC2a7e1Igmuey0QgWhGIZuFiklq0jjqz3yYCOxGBaBYuJqntxIFhHtpEIFoR6HWkFs3SNFoHmdlvE4FIItDrSC2S4JrnMhEwEYg8AtEsXMIyPyMPsXlGEwETAROBniEQFqlFM4v3DBZzKxMBE4FoRSAsUotmeztab5TZbxOBSCIQzcLFJLVIjhTzXCYCUYJANAsXk9SiZJCZ3TQRiCQCvY7UolmaRnJgmOcyEYhWBHodqUXrjTL7bSJgItAzBKJZuIRlfvYMFnMrEwETAROByCMQFqlFM4tHHmLzjCYCJgKRRCAsUotmezuS4JrnMhGIVgSiWbiYpBato87st4nATkQgmoWLSWo7cWCYhzYRiFYEeh2pRbM0jdZBZvbbRCCSCPQ6UoskuOa5TARMBCKPQDQLl7DMz8hDbJ7RRMBEwESgZwiERWrRzOI9g8XcykTARCBaEQiL1KLZ3o7WG2X220QgkghEs3AxSS2SI8U8l4lAlCAQzcLFJLUoGWRmN00EIolAryO1aJamkRwY5rlMBKIVgV5HatF6o8x+mwiYCPQMgWgWLmGZnz2DxdzKRMBEwEQg8giERWqRYnGtqBXVClvQCpvRCpqJKWgmtqCJuPxG4vIbjFbQQGxBAzHSChvQVGskpqiF+NJxaHkNaDl1xJWMVU0raDK+l2Oq1oRW2ERMwQ+bnM/43fw0cYjMGIg8Bex+ZwyL1CJlbxukJoT230jNIDYhtBCphQhNK2w0yCy/URGYIreCJrTc+i6S2zZRTVLbhkVkJq95vu3jvKtQTKSEy8643l2c1FrQirZParH5hlqLLWhEWkxBI4rICg2CkkmTUD7BIDFRdiVj0fIbiS1uJWngRPW3qLPuzVRq259oJgFFDpedMcnDOWakhEs4fdvRPrs4qTWjFXUbUN3MTzFBpYk5Ku2HE68bEebUo2XXoclnboNhworyE9X2I1KT70LEpn7/yXF/fB7z/z/E3cTjl+Kxowkbqd97HalFSpr+ZIAIyQRJzCAzIacQgXX7FF+cEFd2LUll40ksHUdcUYv6VP61zGpilQLcDrH9gOjMSfqTe9DlhzSx2RnYRIq0dnSeXkdqOwLk1/p9u4NGSKyrtaIVjEUrDLVgYCFIajFFzcQXt6Dl1KJlVZNQMlY1MUPji4X4TFLbLsYmcf1I+UeOwH+tufNLjxMp4fJL+7m9/cMyP7d3oJ3x3U9JR5RaiNRChDYOrVBakNhCEdOiFmKF0LKqiC1sJKGkFS2zSkVBhdxExYmpuV0z1JzUv9mk7u0kuzPmUW87ZlikFikWNxz/EgAIKaoQqQUJrSBEaCFSCyk1CTA0E1PURMrA8TTMOIXW351JnPjn+o8kddBEtLz6bf6zruN3O49JbCax/QZjoLcR0M643rBILVL29g/SM4R4lErrRmgZdaRW7I2W24RWNJbY0vFoWbWkVOyBlluHlltDclkrB558FU+/t47KyUej5dXRZ/BEpdpi5ZhZNWiZ1aQMmmTkruXWG9FRSf34DQZ1JM+pIsK59T/I5ZPIcFc+X7frl5y/7i0S/UwoG28oabkXEsQRP6io63x50MlDy+iT+n8owh38XaXwdOt/JPr7a5xjZ0zycI4ZKeESTt92tI/27udLd7TNT36PLKlJMq0xiJXzX/nQDIUWXzYFLaeR2JLxRmSzqIW40rFoA0YRXyq+tGq0nCr2O+4SDj/rek654h5aDjodLWkQaUMmKeLrM3gyqYMmofUfpY6hJpIEGCTtIwonxf/UZyGHvAZ1rZLqIvuqTyH6nLofXH+IQEKf/9N5wsWxG4FJv4SohHDlb9VP6aNEwYtb1feh31XfJOE63PP+hvv9ZLL9Rl9Eao7vjMvThh5XzaFXH80rH7zR4+NH6oINpfYjUlO+s3FoBeOIL52EllFLTGErKQPlb/GZ1ZBY1kx8UQOp5a1oGSOZfux89jr6D6SWj+X8Gx9l7O/OROtXiVJq2RJEqFGBg7jisUZibmhy/4aDOxITMqR81KeQQJAg5DN1yJTfnhTyjaoQIS3Vx+73I78ReQB1EZkQtPhJJcpdPuGn23ffdxf+u8eTcCdvGKk5vjMuQ5GaEJu0A684nKf+9dwOzxMpafrfSS0YFChoRctvVgorbfBkYvPricmtJr6ghti8KrSsUcTn17H/nIvZY+a5aNljSBs0nnOvf4QpR8xFGzBaJe1K4CC2sBlFaqIOsmrUxIgEsfym5wiacaE+KJMteP1CbEIQPyGTCBKCnFuUmeqDkG5Qfan/B0lMiEz6r5RbN9UW2jZ0bdHyucPJF6ENdhtS605uf33rbxGC77+fZvukJmaSkFor8WJ25jcRLzlpA0aTPXwK4w44iZQi8ZMNJyG/huSiBvY+ai77z7mIuLxa4gsbFLGdf+NjTJ11oQoYSMqHioTmNZIyeLJRhRDByftbTbiQKacIIOiT6m7KbVch/Ra4dDNDhXilCbGJIgv1V1RbiNiEkFX7Lfr6C8/532dDZH+JlHDZGVf1A6UWIrXQpyi335LctgUKJCopuUKSYCukFmwFLcQVNpMkqRv9K+lX3sy1dz7NZbc8THp5PVr6MFJLGtnriHOZPusPaJmjiSuoI7G4iYzKqZy+4AHGH3aOymETH1KMHD+/kf6V0wxT9hcO0N+KrHp6XiEHRQRB01OpnmDhv/wtv0lTykiw+C3IInjOUF9UH6S/IaUmn+JbCyo2de2y2IGk7UTh/dsZk7y3HXO7pHbEtXN4ZukL/xWLSLH4tlrO7ROalinRzXFKgSXm15CQPZIHn12KDTjjkpvJGDIWLW0Ih5x8uVJrWvoItKzRJBQ1oGVXkTlyGhcsepLJR8xTFQdqVY4BY37gOI/GidHjPgsZBAv+kyVYIsSQ30jfYVOVCR5ScorUQoQmnxEiC0W4wfMpkpK/pY8hn19OnXoAqaCO+EVLx22LXAdN1Uj19dc6z3+ddOYPPUbgB6R25HXH88oHr+9w50jZ29sfKKHk2xa0vCZVIRCbV0dczhj6ldRxx8MvYQ1Apx/OvfI2kvJHs/8x5zPj2AtIyK8lJqeapJLmYGS0hpwx0znt6gfY65iLlNkZXzJOpYUYdaJNxBRKwXwdsQViohrOdE18eQVjic1vITZfak9D+W3b+zRKu4xljIK/q/1Fbf74/6JEuxN4t9KvLiL5L+fo2u9HalapW9lHiv631cpKmZlKSJZrCubsCWEMHjuTY+YtYtbcm4kvbla5fbFFjWgFQoD1ivRi8luIyR9rNHUt0mfjHF2R6h+Usxn1uaHStpiCFn7aum9jqEKVPJ0nq6o0kiCKMb+OmLwaMoZPYvjEmZx5zYOcf+MTTJw511jQQCVay0osDSSWju+qC1a1wV1J2zJ+5P51b8aYMvrXvR+hfrYSUyAt9P/QNqH/y2e3+xz6W2ES+v5H51X3JXS/BT+j7XDyRWiDSAmXnXE5itSEzP75nyU9Pn7kSM3wnRk3XCZNt0ioGpRjg+TSTHxeLan5Y7jviVdxAR6g3Q0XXLOIg489i30OP43kghq0rDHE5dWr9dhi1CSto8+QCZyx8AGmH3epyl9LlChoVrWaxHGF1aQUVZKQN4TkkhoSS4RMxxNfMIW4rGbis+qJzTUirlp+DVppk4q4Jg9sJXmgkV4iBfUyybS8GrSCehIlFSVXBnk9CWUS7JA13ySia0xm5TPMaVakHaf2E1JpIq5UUhea0fIl3aKe2OJGlYuXUDaWGEnJkML9orFoOU3ED9wTrWQSWpZ8V8eAEZPQBowgJqeOpMKxxOU1omWMILmsAS1zJH3KxqKlj6ZmytFs9MCLS1eQXTmR2LwxJBSNIaXM8FP2LR9HQu5YtIxWEvMnow1oQPCSiLOWPRItZzRaQQPxxWOJL2giQbVmEoTkshvQshpILZmIllFPvDwY8sR9MB4tp4HEolbigquvaLm1JJQKCdcqdRaXXc2AgQ3EZw1i2mFzWNXhxwJ82wF7HzUPLX04ScW1qr9p4l/LbiAup4FkwSOjhqSSCaSUT0HLbiSuWJKvxSc7CS2nmYTiCaSWT0brO4qkwlYS8hpJEgLLbiQ+rxUtq5mEfMmBlAhrA33KRdWG+t+i+p9QNJaEYiH7BkWqEnhSDwG1xp+Ql4xV8QVOUOc2yvtCpBZ6UDX3eA7u7A0jNcd3xnVoS798/38+bqQueFv5kzzFGokprFdNqQJFakZqR0x+K3F5daTmj+b+J15WhOYNEpvVB8//4332P+JU4jKGEZ89RpVOJUp1QW4tKYNEmY2ifsbJXLr4WbJGTlPkkFI6niRZYDJrJKn5Q4jLLCQmezBa/wq0vLHE5IwjPqOOxKwqkgqq0dKHEDuoFa28hZRB4xWBaBmVxOSOoU/ZOLS0YSQUVpFaJmRSS1y+5NGNVAENrX81fQftRerA8co3KKkpCaIYxbxWyyeJyVVHfFE9icX1aP2GkFhUi5Y7irTBLWpCa32GGpUS2bVGACVXMJtAjBB07gi0jMEkFdaSUthEqkz0zGqShQTyRxCXP4bYnDH0KWpieOMBfNfh4+2PviG7YjzxuVWkllShpeQTlzOMpLxqtJQRZA+ejpbeQGrxBLS0CrS+g0gqqydlUCtxUqqWVU98fgMJubVofYaRWtRMn+JWkkUh5jaSmN9CXE4jKUJoA6qJzZWHQx1a+kh1f2LkPAOGkVzeTGpJKymi0vqVkpJVwuMvvqZcDAccfTYJWWPoU9zIgMGtRj8zK4jPriE5r5kU8bfmN5AiPteUCrT0MSQUj+1SXEJMavWWPpWKfOPz6ugrD46sMSTn15Na2ExqUSsZg6eQLilD6WNILpQHaB0J8kDMlPs+Wv1fHpaCQ5/yFhLl4ZtTpRR+crmcrxkts47Y4onEFBlNPdSUb1hWojFJ7X8moZ/ZIayKgkhJ019Caj7A4fNj94EbuPGOh4ntP5C0wlpyh++B1ne4ChhomaMorN+fuTc/TvU+x5NSLpOsCk1IIXssmRV7M+esK5hz1nz6lY/m8LMuZ8G9r/DHh9/mrEtv44iTL6SkeiKxBSPRCmuNaGp6jZoECdkjGFw7lYOP/QPzFtzNnx56jitvfZBDj7uEwuF7sO+Rp3LhdXcyrOFAtJQh5A5t4dT5N/L7Ey9iUO2+nHnZn7nlwdc4+8o7KRo9hZiMIcRnV1A0chwHHHMmV/3pIe58/DVuuu9Zjj3nGjJkYhfXk5BXTUxOjYoMi+KMLxrDkNbpnHTBTdz5+Lvc9tA/OefK+xgx8Xdo2UNJLBxDSlEdCdljqKibzhYPvLnsa4pG7IPWr5qKloOYe+1d7HPUqRSPnsgxZy7kj/e/zvV3v8yZV9zFlN+fSn6VpNQYDwwts5mYnLHEZo+hb2kdzdNnc86Vd3HdXc9z470v83/zb6e8doYivOSCBtJKm5W6HVi/P/Oue5BpR57LoOYDuOSOp7jq3hf5v0vuIjG3hnH7HMEl197Kys2dtHvgqkWPcOL5N1EyZhpan3JSS8aQkFfJuP1P5sLrH+W2R//BpX96lHOuuZvaaUeRVCxJxSNJKWskrqCa5JI6Trr4Vg455VKGth7AifNv5pq7nuLmB18ir1LGwVBmn301V/7pEer2PJTxM47l5r+8wJ8efoVLb36QcTNm07esipSiUcw89WLmLrybm+5/nov+eD9ldVPRMoYpc1n8vlpuI0mlk9GyJVVmAlq+uB+CSk3Me2mFplL7Ga7q8U9hkVqPj/4LN/ylpCbEJorNroNVhytuuIfY9CEk5lbRRyZSn8HkVe3DpX9+lpp9j1dqSBabjC1oJk7qSnMnMWL8cXy2xskmB9x0/xOscsJGMW1BqQU78Ny7H1FcO1mRmiij+LyxaP1G0zrtCJZ8sgaLDxxCsoAz2F78xxf865OVyP6T9jmGpPQK9jrwGDba4Ot1Tl55d4U6vhX48FsLlU37oMVmMmn/o3jz/RVY/MbxZHLLNnKcJ175gILh45UZ3qe4npSSFpJLGjnzylv5tsOntpMgyiYXynT7bKOHUy65ibSyGpLyx5CaX0PV+INZb/Pz9ocryRq4J0k54zj0xMtpC8Df3lzO0//8WO27WYetwHo3bPLD5bc9TFKRKK46Bgzej9isFtLLGrnohrtZYzH6KP0Uk1Hah6uczDpjAbEZlSTkjiI2q5JxM45Xx3vj43V8tgW+88Fm4KXlW0jIqeHqWx9W1ynXLFjKtXQEoHGvWSTmjaKsdjJ3/e0N2nzGOTow9pd+rmgPMO/6u0jIH46WNYSkwhFkDWvis00e1Z5Z8rk6l2wr+w1t3hutXwl3PvaiOs+bH37GN1ucCkMhfTn3l5uszDjmJC675S42uLZd4wY3fLbBRuP0o9EGDCe5pIXYvEYSRdVmNRJbNJ4YtQiDkJqU+Amh7VqkFinh8gspYru777ak5gcC+HB5nLh0nyI38bVddfNDpOSNVoOtvHEG8xc9Qc30OWi5VYZ5W9CozKe4QvGb7UHByAN5/4stiozWOuGPDz/LmL2OILm4huaph/DUq0vUAH/q3Y/pWzHeWNqoz2gqGw/l/S83q8l3/e2P0Tj5YHIHjqB2/DQW3f0UHW7o1A2Sa5xwEKkDhrDnfjNZvdGmlGWbA8648I8UVU5gUPWe9C0YSeu0mbzz0SoVCLn38ZepbNiD/CF17HXwHJ58bbma8P/44Dtyh7aSnDdGmaVzzrtWTcTP1m7llLlXM6JhOsPr9mf26Vfz0epONYHPvuJWtPTBJGSNpGGP3/N9p5vX3/ucgmH7oKVWccgJlyoiElL6ps3DOVfcSmHleKUsjzz1Ir7Y5FS/n7fgzySLmZjRRGrBOBb86RHVp2VfrWXWaX9gRMteDK6dzLFnXsbqrQbxHHvWVaTkjSAxZxjj9pul+irEstIKh521gD5DJzJg6FRSC5sYXLMnvz/hTJZ/tVptd/Ds82icejT5wyepFJ7HXv23IrQ3l61j+sxzyRjaQlHNFObMvYZP1tlVH+de8ydS8itIzhtC3+JKPltnVccSor3sTw9RWrcnpfVTlerT+hRyw+K/qHvf4fPy0jvvc9q8qzn8uLncfPcTdLLtgfLSu58y8/gL2W/m6Tzw9CtqTDz59if0LWskRlwemVXESmCraDxxQmjiflDBgR/6irc7S80v/ycEwiK1SLH4L1FqAQWDHvSsgcdrBA/Wd8KVtzxM4agpnLfwfpoPOInEUnGWjyCuWJzIzWj9RhErNabZrdRNPZ6Pv21Xk/Pq2+83nvT9hpJW2kT//JGUVNTz5Ov/UsrtyHOvQUsZREb5eG666wU1sC+56V7SS2pIyR1OWsEQ4gYUkVlax+U33N+l2g484jQS+w+idY8DWbnRqkjtnItuInZABXHZIxVBJWRXcvZlf1IT8N6/v0FGeTWp+cPpXzyapOwKMgc28NjLH7DJAxf/8RG0+CKqJhzKe19sUpN54r4Hk5pZRsqAwST2H4qWWkrd5Bl8b4ev23wMadgbLaWMysZ9FBG/8M/l5MvCAEkVzDz5UnXeb9t19j3iZOIGDCEho5LEzBHEZwxl9LjpfL3FzUY3DG8+AC1hCNUTjlSYff7dBqrHTUFLGYDWN4eMshFofQuZceQpbHHDG+9/Q2Z5DbHp5Uw+YLbCTFTQjGPPIVGCGHm1xOQ2KX9cTPpgSkc18+p7H7HVB9mDGkkV31t6BcecdSVbA/DWRysZUj2NxKzRpJU1BZOwRzHlkJNYa4fvO6Gibgp98yvIGVjFyi26OufCOx4jpbiK2Fzx6VWSKMo1ZwR3PfwMNvy8uvRdBo9pIr5fGQn9KsgprVPkKmT4zscrGNW0Dwn9R5KSOYaK2om8v+I7hfuQxn2JyxlNogQMcupJLBpLTJ4EEcTnKYQmCm1bAOx/mr3mxttFICxSi4ZAgSI1vxPdKc99P06XF6E4UWvrrPDSeytp3v844gtriBOnu0Tt8muRSKJUKsSKv6P/SEZPOox/f7FaTdCKxilo/QaSXNhKWuE4+mVXE5NYxLGnzleT/qaHX0TLHa5UzFcbvXzdAcMn/E7lysXljVYmT0rxKLT+w8itmMBXbR426TBh/+OI7T+U8fsdyXoHfLKqk/4ldSQU1htpF2kVZAyfwltfdvJ5G4ycdBhadiVxeaPQ0oeSIIGKrJHU7j2H2//+HoeffaPK3Zty0Em0uWFNu43T587npDMu4JSzLuP08xZy2txrOfPihbz18VeIuTTz5AtIyh7BoKrJ6lrfeP9TpcQkKHHg7DPV9b2+bAX9i8YwoKiJtJxG+mQ3kFHcTPyAwSx+5Dm1jWwrSviMi/5Ihw/efP9DTjxnHmfOv5yTz7uIcy9ZyOxT53HepTewuk1nsxMm7380ydlDmLDvkaxu9/Pmsm9IyqtEy6wktriZmNxm4iU6mjOSQTUTePW9TxRhlI6aTHJOFcl5Vdz1xJu0+2Cfw45XhN2vsIHY7FoVpEkR865vBTff84Ii7Bm/P42+2cMoHtLEJ990sqYdmqcdQ3yOYT6rlV4kmJIyjFvveka5D264405i04pIzRzNgLyx9M9r5NLrF6vjLbztYRIHjCQpvYWk9Cb6FYzhjkeeU32ccMAcknLH0L+slbicOmJz5WVBRkqISiTeRUktUsJlu6z0C7/cvUlNUZgTj9OOkJz41yw6rLfB0WdcSWKh8ZSPKZRazxa03Grj6ZkrOV3iV6ulctz+fLF2Mys3tasoqPiJEnJaSMxsJT27gfSs0UzZbxZfb/Gw5Ns2EgoryR1ap0yTp5d+TUHddKU2tLxqUsolYjmchIJ64nKreWbJZ2q7+qmzSMqtomX6kYpgnv3nZ8rhrzLlC1qILxuvyPbjLbBktYdhk2Yq8zmpVFI6qkgobiReJm5eMLNe0jWyqjjwmPOVGmxz+nD4Dd+iWz7FDyc+MS/q/KI2jj/vauIzKmiYcgjrrTqvLv2QwspmtPRyDj7uDGXW3f7wsyRmVJCUXkW/nFbSsppJkwhiWjmnzV9Iux8uuO42EnOGMm/BbWrCy0NEfIpiakskeqvH8P/J/8UvuN4Cx552CVpsFnvMmK32uePBF+hTNAYtv5rkwZPQMhtIKmhVfr/cigaWfrmGLToUVk4kPnM0GQNb+OvLy5TiqpmwL8kZQ0nJqiJRyCO7kaT8JhKyajjl/Fuw+2HepbeTmj6UAbmjWdsGyz7vZFD1fiTLqxNFReU0k1gwnvj0em6//zXVp1mnnkVa3ihF5gn9mkjJbGLeVbfR4YcTzr2GpMw6kjOmkF64D/EZo7juzscVHr8/8QK0/kNJyqshIVfueyMppZLWYaTp7KpKLVLC5Rfy13Z3j25Sy5Mynokq9yk2V/LURvPnh55VKR2G+enBr9sI+H34AyiltnqTzlGnXEJKYTUJ+dXEFdQQI1HLQlk/TcwAY902IbX4wjpGTpjBe599xXqLQ5k+8VkjiM9uJi1/kiK12MQyfnf0maxzwEsfrkRLLyV/eKMyxd76cgv5tfsQJyH73CqSymuIKxyF9LXvwHG8+dlaNvqgZd/jVKpJ095HsNoCb3+6XpksKoteUiPKJ6rJ/cYKO19aMUit31ClLpMkLy6nSiWm9h+2B7lV+5E5crrKs9v/qHMUmbyx9AOOmHMiJ58xjxNPvZAjZ5/PiWdcwcwTz+HI0+Zy5OkXMrB2TxKyKhnZsp8iuzeXfUrZmPFoyXlqGyG+x15eQsKAoUql9MtpoU9mI2nZdcpMm3/dYkWQZ11+A1p6mSI1SYB+9vV3OfioE5h18jnMPmUus0+5gFkn/4Hjz7ycmcfN5bBjz2dk475ofcqYsv8cRSD3Pv4PksTvKXl/2bUklkxWZJOQN4bS6om8uvwLtvghY2AzacVNJOfXcO9T7yil2DT1IOL7DaRvXq1KHYnPayE2q5bE7FrmXn4PjgCcc+EtpGUMJ6+knnVtsOSjLQys2o8+xWONVJuMBuILJkmXGFsAACAASURBVKKl1XDLfa+r4x5z1h+IyxhOSk4LaXlT0dLqOPWim5UaO3X+IuIlANB/Cik505T/7+rFj6v9Dj72PJJyRytSS8pvVHlwkjsowahdWan1OlKLlDTdkU9NEVqmkdApkb7+JbU8+OTrirx0vx/d68TvcyuVJpHQrQ445pSLlXkUmz2K+IJalUukFRrJrKEIlGSbS/a4LE80asLvWNNmx+qFQ+acrsxPlbPUt4r03FriU8u47Ia71OC+ePFfiS0YRVxWBa/+e6WKDs44Yb4yP1PEb5c7lNi8YcTnVjOk6UA2+40I4t4zz0JLLGHsvkeywQlvLl9FXPYI4ouaiZNcuYwxJJa1cs8LH7HaBTPPuJqkohoVbRT/T0qJ5ExVcsRZC1n2vZ+LFj2pkpHHjD+EjXZY8smX5JUPRYtJI6tgBAl9BqKllJKcO5iR4/ehespB5A0fR2LOaIbU7U1nAF5890Myy+sQP9bvjjtLqaBvtrgoqGiij6x2kl2nWoyYxmU1vPLe5+p6xx9wtFJuex7yf8qMvePBJxlQNIy4fkUk9C8lIX0gWp8SUrIrqRl/CK17HU3f/Gpi+w1l+mGns8EG9//9XdJKGow18XLlna7jFdnIQ6isbg/+8Z9VbAlASfXeJEp+YnEDp192mwp6XLnoPvoXjCZNfG19K8kdMY3YrCryh0/h+be/os0l0eZZJKcPJq+snq/X6nz4tY2qiYcTk12tchQTSyeQVDqJ2KwmbrrvVUXWs8+7mNisESTkNJOSvwephZM466rF6pqPPucaYuThkzOVhFwpMavi2nufYYsPZhxzjjI/E3KqiZHVXwpbVcBA5fKpSpRd06fW60htu5pvJ3y5I1KLl7yfLCmhmUCSqKH+g7nn0RcVqTk9Oh6fjkRBxexc1+bisNlnkyird4gfpkhylULJvD9UaZLtHZM/juTiyZTXzOCDFeuVIbvk85W07HcEcbmjScgZQ2ZxFceddiHfWXx80eZh8ISDDRO2/2hmn3E97QFYvrKDavGB9R9EUt4gRSRNU49g+VedytndrsPUA44jtk850w+do6og3l72NSk5w1Wmf9qgcSqBVxJ5px91jppEn613M/XQE0nOG0ZC5mCSc4bRPO0Ivm0zzMkJM05QkcwBZY3c9djrqmTshsX3UV7ZRFL/QcT2GUz+kLGccuF1asLe/vjryjEemzmaypaD+N4Gr72/gqLhe5CQOYYDZhmkJg78+/7+CrUTDyS23yDSCsYwonlfLrrhTkXqj72+jJzhE+hTMp747Hpe+/cqRWwXLFhMevEYUnNHENt/CPlDx3HTXYYP7rrFzxDTv5K+hQ00TT1GqZvbH3qTJClNk6CNONTzxhGbL9UZleSNHM8rH37Ddy7IGTEVrd9I4gvrGXvQSfxno0ulhBxx0sVkiTshfagaE6W1U7n2rifVsZ9580NyB9eqQEFWeRVfbfSwfGUnQ5v3QxtQgZZfRUyRvFaxCi27hmvvfV4FgWadfxFa1lDiJelWKguyajlr4R20AbP/cB2xMpZyJWI+UeXCXffAs4pkDzh2LvG5Y0gpNqoq4qVSIU98asF0DtOn9qszR1jm56/ei/9ywB2RmpS6SJPyF6koiMuo4JFn3lSkJsrM5Q8oU/S7NgeHn3Ae6SW1pBUFHcjlE7u9AHlbnpCxZLiQ2ni07HFUthzB56styiz6tt3BNxYft/z1Na6/7zleXvKZ+n61xctxFy4kpqQBrXgsKcWTic+s55rbH6dNR6Uv/PmRl7n61nu467Hn+c9qh/ItbbAFlM+redKhxKeV0zz5AFZvdvCvj1aRnFlBckE1MdmjSS2WTPd64rKGcc3ix5SSEr/gX558g8tvvJub7/4b3272KjV15S0PkTO4iX7FdcRmjKRhr6N466NvFbn84/1v+eOfn+G6257h6Te/UpN16bcdNO53rCLQvmXjGT1hJmts8I+P1pA/dE+0PiM47IQLFSGstfvUOd75dA1X3fog19/1N5Z8sUER41uff0fttMORyoakosnE5Yxj3H4nsOyrrSqZ98Ul33DN7X/nujuf4/l3VyoSfP6d1VRNOBKt/wi1WvHEA09Vx7rv6WVqHTwhFanvjSmYSFKJJK5WUVa/tzLbtwADhu9JctkE421hA4Zx9HlXKiKR1JMn3/icmx94gStu/ytvfbZOHfefn33P2P2PQEvLJ61kBBmDa1hlhaXftFFUuweJJdWkDhYSHYX4WYVEr3vgRUVcx86/SvlDU8plZRgx+auZc9H1SD+OvehGo0RMKiWkrC1nOAvuf1o9gPafPU9Vl6SUtJJcMp6YPKkkEReHJN+GIqBm9PO/UEBYX4dFaruK+SmZ2UYtXYvhpyqq5oG/v4rNA56AEelca9HZ7/CTSc4dSebg8erJ3n+IPOGrur0zVAZXsKnCZ4PUYnLGM2rc0SoZ9rNVGzlozqm8v7pdJWlK8u2aDnjt35+z91EnoQ0oR5mxec30GTid+JxWMgY2MfvMS/lktUNNYlE64pv6ZhOcfclt/PXFf/LNZicT951DcsYIWqYextcbnLzx3rfE9BtCspjF2WNIKqwjRSK0A4aSPbSZWWdcyqvvfaUUmCTdSpOI6ZH/N5+k7GGkFYw2yrmkjCdzNEOa9mb+9Xfx1caAIqXNLvh6C9z88OvUC6FljCBBlG6/UQwb+3s+WGPl8dc+JKN0AomZtcw5ewGSbPuXZ17h5AuuUP5CuQ5pKy1w2xMvUzF+P2LyRxkVGenNxBdMViVKNZNncuM9L7DeZahISWz9dB1cvfh58kdMIz6nlvjcOpKLmqje8xjW63DD/a+pGt2kgRPQiqRUTcquZPHOMZQ37svDb3zIBxu8ZI7cR5WcGat2jCe+ZDSN+x/N4sfeVvWrG71GIu23Fjjt8kWU1U8lLm84/YdIGVMFqeU1vPXlZl7+eC1F9XujZQ0ntlhqfkcTq9bkq2Th/S+wwgoH/t88tORCYgqqSSiW9yRUc/ylt/CNC4675Ga0AglsGOVsUpZ2+d1P8q0dDjzxEkXYUmKlanKLJpAgKzYLuamKgl0z+TYsNtlFdgqL1CJlb+9IqcWVTDICBZlSZ1hPn4Ix3Hb/k7j8RlDgs++2MGPWaWgDBhvRxJQKldUdVyhlKkbdqLHgZHCAKUKT1SBkBQ6pvWyioukQPv22jdWbbcRlldJ3UC0VE2YydOxMcoeOo0/BKOUnSxxYT0LFZLSi8UiZkJgoiQU1xGUPp29pI4Pq96V53yMYPnY/VWMZkyklRUNIK6smLquKBKnZzBmpVhVJzK0mQeog8+rViryqiD59BMmljcTkjkJLK6NvaS1DGvehdd9ZlNdMVeZtQu5I+hTXkpgn5k6T8kOlDZqMljOCuNxKcoZOYFDNgQxtPJyc4dOV2aalDUaWZEoun0i/wVOJzW1gUON0MgY3kl8hKSyV7H/0GUqp/fnx59H65lM0aiKD6valYNSe9B3YREzecLT8SuJLxWSUKPI4tBwho2rEd5lUUEtR1T5Ujp9Jcc3+JBY2qcqDZCkAF1IraFTk23fwBLUslJiT8sIcuX4pV0ssnUpq+VRipZA/rZx+Fc0kqHPJYgDywh1Ra1VoeZUklVYTl1tFafW+1E09kvK6aaQPblLpLyml9YgZH1dUR1xxgyqYl6J5tQJJbjX9h09GotRC8vEljcRJ4ChzlMI9pbyR1IGthg+233BVwJ9U3kSC+ErTK0gql7K60fQdNokUWfJqwDBUEEceSqVj6Tt0qoqqaulCfLKO3YRdukwqUsJlZ/BgVJNaVx1ddqNaZUKin6LUJB9txZr1HDDrFGKyh5KQX6V8bv1EoeXIRJiIViRlTTKwur1eTwIE+a3KfxOb30pMbj21ex7OshXfsWLdFjIGVqlJESNlUNnjkEL02AGjjSL1YplwFWilY4kpm6DWz5e125LKW1Vxunp5csYwYosk8iUrdowlXiZUfg0pg4x+xclKG5KWkVlHQtkeaGJyyWoesqpF6G1ZQgAy2UQV5Mo7GcaQWNJEYoksJSTpCDVo/UaQVDYRTc6TIW/VGk2akI8UXQ+oIa1kD7SMBhWVlZU+0tTbt5pUgXpsbjNp5Y0k5FciCb8x6YM49ISzg6T2IunldapOtV/pJNKkf+nGsukpgyXCOwItexTJFVNVf6VPsrS6BGQkXUZIKb5Q8rQaSBATbsBo0oU4c2pU9FYSbePEn5VXpUhFXnMoq2rEFMiqGFLy1aryCmMKRxnKKLOW2LIpJMl9za4itrSWuJJqtP7DVeG5lFbFZ1fTp7iFeLWYpCyd1EySrNYhrgvx02U3kzRwqoFzVgMxhWNJG7KnKsiXpN/UYL2m1l8isbIiyTjVZFURLb2aPgOnGDW2EtmUGk9Z3aXfKJLKZOkjOV9dcCmrJuQhLPc1tliuRxJvgyaoWdD+q3LbLk5q3ZceCkWJtqVdSFFwQpkokQa1+m1M1ggeePqfrGnzcNDRpxCbU4E8neXJr16ZJ8sEyYDKaSW2RF4sMj5IajK4jPW11LpZSqnJEkO1lNZNY+mKdXyypp34vEqSxXmd3UpM3mRFDpI/pUnUTBaeHCQk2YQmakU+ZVKqFVobiBeSkW3kTfFleyrnt9pGXrKcLoN/ArFlk9BkiXLpV4HkMo0jZpCsGtKkzJW4QXugqZc1txjnkOPLeYTopMlqtSXjSBVfWIYU18vblyYSK+fNq1ZEkqgqJURNtZCgViERx7hcawvxRZNUGY8ojvj8USTmjyYpfyTTjz6VNXa49p6n0PoNpW/ZROJyZHmmFlLL9zDep5o9ioRBLcQONJZWj5Ult2WttmxZGaOJ+KImYgsalD9KfFLSUsW87D+SxFJZukhwFDJrMggtt9p4M1h+C4mle6ANqFfR4ITiBlUoHic5enLP1DJCxkoXsaoyZDgp5RIxriapoJnE/CZi5Y1jec0kl00mRrDNkALyySQOnIaWM5a40j0V3rKChuSoSaAoXlwbea0kFcmbxupJKd2TPkJ+mTKWRJ1Kyo+8xazVKHvKbQySWxPJsoyRkJ4scSVLVeVIIEoeYkZgS+6nGrehgna5h6qZBe2/BruFRWqRkqaGz0EIIuTz2nbz1W8SSZKyExncsoRzYSPzF/2NaUefT2xetRGRkvIUCZ2rvKAfL9QXJDM1uIyFAre9AV4GYx39KqZQ2jCDotp9SR04zlh5NaeR+JKJStUZiwP+qF9d/Q31u5v/RH5TyyaFHMWyjbHo5Lbrld+E0EMt1E/5DB0rdOwff4Z+D12r/F/6F1okUhY0lPPJ9932DZre8r0U9RuEZGA4YPgUypoOoqhuhuEzkzSLQllSJ3gcwTZ4jtDkDDnBDewF/1CT699O65rYISzlU44bug45l/w/FNSR3+UaQph0++1Hi2HKPVLRxq5rDOItBN/V5LtQ2zYWjMUhjUUijd+3/WaMFdkn9F3ouoL/D+G73bEXuk/S723t15jUv8YxIuVi+jX6+uNjhEVqPz7Izvp/95u9vb9Vcmq/kWrCqCWdM6ooaT7MeBOUKKRugyXcv2VJaXmpR+hlH0p5ybFVjtG2wRju8Xfl/ULLaYuSEwzU/2UJ8LyG3vG2rV9h/Pyv93dnzaX/9biREi7/a796sn1Uk5paVz+nTk0wmXSKaORt3jLxfoUBqUhTmY9SG7rtxbldLyL5Fc7xa/RzZx2j690EgoG0ELbB93HurPP25uP2ZNKa2/w8AmGRWqRYfIeDO/TyXSGXbHESG++IVAQnk/BXIB2Z2KJQpIXITD5Df/8a59hlj9HtZcIhDJRaE1yj9MUmuyzWwbH689PV/LUnCIRFapGyt3c4AHPrlVkoKkomm1JWQfOoa/L9EmILTlw5rjqemJwh1fJLjhsl+3ZhKv0VlZbXoMi8C4souY4djqNd6Dp6MmkjsU2khMvOuJboJrXCZpQJKuH0gbL2u/FGbyGeX0NJqWOEzC6Z1OKAlkihTIJe4FOTa1XXK9caetdmYfO273YhMogm4vq5vu6MSR7OMSMlXMLp2472iW5SCyoHNeFEoeXUkTpkiqGqsmp+sfnZpfa6TWj5TloXue3OE1vILGjiS6BEKWG53l6kVn+OgHbGbzuasJH6vdeRWqSk6Y4GTcjclAmnlFNQoQnhdE3AX0I6QdIMRT9Vf7oR3I76F+2/d2EYUqUh1RrFb0Df1e9JpEhrR+fpdaS2I0B+rd939QFo9m/3Tmn5Le7vrzV3fulxIiVcfmk/t7d/WObn9g60M777LQaVeU6TqH7LMbAz5lFvO2ZYpBYpFv8tB5d5bpPcfosx0NsIaGdcb1ikFil7+7cYVOY5TTL7LcfAzpjk4RwzUsIlnL7taB+T1H5JIMHc9xdHmH9LAtkVz72jCRup3yMlXHbG9ZikZhKTSUy70BjYGZM8nGP2OlKLZmkazg029zER6G0I9DpS62032LxeE4HehkA0C5ewzM/edoPN6zURMBGIHgTCIrVoZvHouTVmT00ETATCQSAsUotmezsckMx9TAR6GwLRLFxMUutto9W8XhOBHiAQzcLFJLUe3GBzExOB3oZAryO1aJamvW1wmtdrIhAOAr2O1MIBydzHRMBEIHoQiGbhEpb5GT23xuypiYCJQG9DICxSi2YW72032LxeE4HehkBYpBbN9nZvu8Hm9ZoIhINANAsXk9TCuePmPiYCuzkC0SxcTFLbzQeneXkmAuEg0OtILZqlaTg32NzHRKC3IdDrSK233WDzek0EehsC0SxcwjI/e9sNNq/XRMBEIHoQCIvUopnFo+fWmD01ETARCAcB7dib/o/ZN56s2jE3nIS0WTecqNrR15+AtKOuO56jrj+BI687nkXPLCaa7e1wQDL3MRHobQhEs3AJS6mZpNbbhrh5vb0NgWie4yap9bbRal6viUAPEOh1pBbN0rQH99PcxESg1yPQ60it199xEwATgd0cgWgWLmGZn7v5/TQvz0TARCCKEQiL1KKZxaP4XpldNxEwEegBAmGRWjTb2z3AxNzERKDXIxDNwsUktV4/fE0ATAR+ikA0CxeT1H56P81vTAR6PQK9jtSiWZr2+tFqAmAi0AMEeh2p9QATcxMTAROBKEYgmoVLWOZnFN8r1XWPC1Rzg8cNbo8Pl67j0t04va5gc+Pw6jh0H07dj9ODai4PeDw6useJR3fg0W14dGvw04nH48Hj8eJx+9Fd4FXNj8/lxef2oLs9uD1+45i6jtMr53QGm5zbg1P3Bn+X7eT827Zz6w50jx2vavK3nNOFx+PGrXuM5pFr8f6guT1epLk8fhweVDOuxYvX7cLrduL1uNA9Rv/cHnALNu4AutvYJuC24vU4sOvQ6YNOv5+OgIetOOjAjiXgwOZzqf7LNQq22/D1YPfZsfs82D1gd4PVaxyjHQftWGingw46sQas2H0OHF1Y+NR9sHu96p7oHjdetzRPsL86Lrm2rnsVwOUJBPsewOsK4HMG8DsD+FzSL5/CIoTJjj6jfbz3tv6HRWrRzOJyg7uTmpq4XaTmUcSmyE0ITsgkSDAySYQEFBG4fYrYhEg8eojchFzcxvfu4IR2oYhNdwXwun1dk1CIxakHgsf2/IBInbqQWpBIhUzV30JyxnYuXQhMyEfOJU1ISFdNTWxFXD5c6pqErH84gbtITQeX7sftEWIQQgsRpFuRoSJy1Ue/Igw5lxCpbOv0BBSx2bx+rD4di9+F1e/ELoTmlf740N2haxdiC6jvhMAdXi8uNzjd4NBBjmHxe+gMOLEE7Fj9dhw+IXnph5CVXIvxEHAE8ZC+6CEi98g9E3wMzBx6QB1X+qiITZGr9EeIWUd3C1YGwff0s7eRQrRfb1ikFs32tiK1kIJQKk0mnEzukFoTlSMTRVpQ8XQRhWwXUjCGipH9tk0O+VsUQvdtDLUiyk0UnhCQTDal/NQkDRGWkFk3laa2EeL7EbEpohXlGDxGUEFuU5Ih8t02qaWPok4MheJTxGL3GurP1UXKDkQFilK1ez3YfF6sPp9q8rd8J0SjSDCoQuWa1LXrulKISsG6ffic4Hdsa16nQXCCiyg3pZyE6EUxB7EKPTAEP109AISIpMkDwsDUwIzgQ8Ae/PQEr8eviFZUZKg5vH6l7OSaXF47Lq8Vl9emHlzb7tmOCS7aJ3k4/Y9m4dJrSc1QaEJo20htG0EZ5LNt4Hf/v18pDVEbqilFIGpCTDtDVYQmqPEp5OLvMm8VWcr/leqT74VMxXQKmYxyDIOQtn1u204UiSicromrG4pHvjOITcjOOGfoegyyMVSKKLuQme3WDbUnqs9QfgaZi9ktRGbx+VSz+vzYvKKADLzEjAs4/PidYlb78bp8qvlcPvV/+T4g24RMviCpCYEJSfldLgIuJ36XB7/TIEEhwlDzCykGTUWvMheNh0mIuJV67maaiuqV6w+Z1epTfScELuTtwumz4/RZcfpMUusJyUWzcOmVpGZMdlFVMlm6NaUKRFGJeekNNj3oJxMCcAWVlmGGKtJRhOTGpdSAmEzdFJ5SVYbZ6BAfkUwqUQyyT5B4DCIUIgs1IbztkFrwd1Fudm8Am1dMt4D6WymSLjPVUJpCWG4xVXUnujItHcrENMxMF7rbrfx8ioAcEHAYpCJ+QFGjQmAh4pRPIRSXmNNOY1scPkVsBnHJvuKvElLT8bld+NwOfB4bXo9N+QDF/+hWqtCOz7MVv6cdv9uC3+1Q5BYQIgz2IxAkNSFLMRtF3YorwPBxGg8Vd8gv2mXiB81dRZwB5dMMKdPQw8l4cBj+t9B3PfnsCQnsbtv0OlKLZmkqgy80uH9AbkEzR0wdZSoqc02ITUhNCC3oO/O4g6QjxxGV5QkSmgOXV5oz6JczVI/hR3Li8ImvyBJUCobfadv5hWC7t25E+4PvDSVoF8LxCrn5g4EMMWF/SmZCJLpuN1pXcCEYZHCLUtKVmiJIJmIyGiahoQwduhflxxJCE9NRFJcoKpeoLV19iroS81L2ExWmC14SQPFacHu34vZJ68DttSjTz+214vFuRfe2o+sdeD1WRYCi2gJOL0JuQpBioobMW/HTib/O5nMiZrPqi5BasD9yfp9LmpCqVxFryH8mPjR5QAm+2x4cOzY5u5Pd7kZYPbmeXkdqPQFlV95GzK+QolJkEiQ0USlGE7+OP+jTkUinOOYNghByE3VnmI++YMTRpfxR4pMSdSR+p9CkEAJVEU0VVRWflcPw6ahIZchp3Z3QghMu6Kdyy2dwUhoTU84tpCOfsp+hZOScRuTVcKIbfRaVJn0PBRdEuTkUwQjJqACBWzdUliIGI9IpikrMNFGWDjHXvHJNvi5sRAUa5B1UnGKKB317Ei22+5zY/FZsgQ7V7H6LInWD4D3YVGDBgd1vU+dx66LmJFDhVo58IbPQ8YTAbT4dq99lRFf9ToRsBQPpkxCWRJQlgutzO4MK0SBuiRKHFKJcgxHZNgIQofvTk89deSzvrL5Fs3AJy/zcWUBG6rjKcayIzSAMQ5kFgpO2O7GJ+SOkJkTxU1IzTNeQkjPIQ1IixMFtKD4jYGCYkyHfmSg4IUGnQYBCbl2k5UWRWNB03P424jgXwg2RrkRVjcie8Rn6W3xoMuElvUTIz1B/oujsfjs2vw2HmMxCmkqditNeyFJX/ieH34Ld34HD36lMZiEydV0er0rNkP1VeoZSi4Y/S8xUMYstfh1LwCAhIyoqkWSfCqCIGSvpIFsDfjr9Xmy+YABC+fcEC1GcRiTTOJ6Qmk8Rm83nVopNVJtESB3BVBgJdhimrUSgQ9Fow9wV8pWUGdleyLbrmhXmPVNskRqX5nl+HQTCIrVoZnGBbRupGZNI+dCEJFwGsTltOi67EIIfn+7H7/Ohy6RTSsyNxwtOFzhcfhxOD06Hi4AvAH5w2dzq09qu47IZBOmwBaN+XrA7fThcNjw+O7rPhdcvqsOD0+XB6/djd9rx48Xm7MTu6kT3G+Qn23h0Me8MUwuPONMBr0QZfXgsYh+Cx+rF6whg7/Tg18EvfXXC1k4/3gDIZjZgo+6gTdex+BD3mPKfdTi8OHySpuHCjgsHorhs2L2i7jzoQjYeN3bsdGKhQ7ex1elUeWceP7h9xvE73AFsAcSqxS7nD6Z3iHkrmFgDsBVok1w1D+h+0HVwS9DBBx6fBEOMqKbLH8AuhKyDVx3Lj83vwBKwYvHb6NRtWEWF4cfhC2Bxeel0erFJFFWd30+nx61IsUN3YpW8wC71a5Lar0Mju9ZRwiK1aLa3DVITE8QwQUUZGMmyRvqAEFvACz4hCJcPl1PH4XRjdzixu5zY3W48ASFGkInsE16RCJvDjstuJ+ARv04Av3CMHXzKcQ1Ou0FsLkmD8Dlw6p14cWNz2tD9ATzegFJJPvzY3VZsrg7cPht6wInDbcfucuF0+3EKA8kEt3uxt9sNMnMHFLkZ3xu+Lr+QheSDOQ3T0CYk7IWtbtjg1tkiEU3A5je+F0KSaxIfmk330Olx0OmxYxMfodfIh/PrPgIBIRUbnaLkAk48+PGIj8/uw2aX9BNw+qHTA+1OPxYHOCW9QwhYmg7tDujwg10IVVI6JDhhB6fNh9Ppxuay4PBacePEE3DjdnvwOKSjxv5izguxOQKyhRdHwIvVq2P3BXAKmfrA6vYbSb6S+iJ9kmiokKNPfKE9I7OQabprTdnI9CaahUvvJDXlVBczJ2h+qgoAUWZCbEFyC/rZhIQc0iQRVZSCmrAeOtxOOlzid3Lgx43ut6LrnYAbl80CAXDZXbgcHvxCGA45l5igbnTROp52fHjosFoUMYoSsTnlOH7lr3LqVtx+I6/K7rbj9voQMeiRbHybE79Im4DfkGK6C6/ThqOzDa9LIo52JeFcbgedNklj8KnJ3uGR3DOwyCT3GcrK6fLitAtpSNTSMGWl77oQgMuLV5G0jm514LPY8TslEOJSZpz4D8U09zqceB0ufB6v7IrLaVK/pwAAIABJREFUF8AmQQafT4QkAa8Xn80GHR1gt+Dw2HAGdKV4XXbwCru6JCsa5RvTA514aMPhX4/DswGvREmtLvxtfgJbQaKjbkdAKTtdPQw82Fw2bG7BzIUXHafbidMuPjYBDfx28FuN3DldJQP3nNgiQyO71lmiWbj0UlIL+reCfhUjwmnkcYkPzW51GBNaJr5SL4aZZNXBIj4jDNFgxadMMHvAhsPfgc21Gae7Hbe7E7/PhcftwOGwKd+Z7pMoqfh3bLj8FiyuNnR0LA6nOofNGcAjpUd2USdebG4LNk+HkV8lSskvZhlYRXmJwlH5Vx46bZ043XZ8fnHmWw1S9RjRRqduKB671y6ah60eMSqN84jPz2lz4FfZrw50awc+hw2f04XL5sFh9eK0BVSEUUUWHToBh5OAy63Uq+4VAvLgtlrx2a3gFUbSsdpsdDjdtLt1OnQvFt2N3WnBZd8C7s0Q6CCA9K8TXdI+VIKZQWhCPg6HE4veiY1OOv2bsfra1DUp5helJuQnFr7TUMKqFE1M1oDX8AV6Ldh1C27djkcYU5cnCtAZAHnmdEqkVvyLJqn9HI32OlKLZmkqN1JyvYzooQxsMT8lchiKGrrxSF2hz5j84iLb6hBTCjp0aPPCWjdsCvqFZJ5Y8NIpznefVTQCbqlxdHUq35jH78Luke/d2LwdOANWxAlv061BYjLqIC2iWORYDiNNo8NhxSZ1pXhxSjmSM4BN+uCEdh/IVBcKE4K1BAKqXKnDZcXqkUndSadzCz5EtbgIecgsklEfcGMXM1nX8bvlCCKTOvC7NoC3A4/LqoIc4tsSX5eQuktMbR94/RJw8CiTVkxbv9jhKotZbGs7LqedNquNrT454rYmutGFG7dvC07X93j9m3E61+Nzb0XZ6U4XXocHlyvAVoefzTpsFp8b0C7X5wObw4Pb4sJn9eHaCi6LYbI6nIb5LHxnDehs9dro9NqUWtNVvonLsME7bYY8tUp+Xiii3DNi+7nJv7v+1utILdpvpEokVQmuMklD0ctuSariFPeKszpAp8sw15TT23jQq8m20gUrHbAlOHmFXIQeOj1Gcmynw4PN7cPi9GCTxNGAlw6PDYc44AMOnAEPFqlDFN+SEKcVxO8lJOryY+wjkUG/D4vLp77XxZcHrPfDaj+sdBuTX/ogjnfpoxCv1FN2OMXbBJs62rFLEi4+rB4XNomGeiEgwsViw2prx+7cpFSmF3Gqw1YPtOmwSYd1LvjeaRC5EI2yFCUgonyFPgK6G7/bhtNhUWan9EGI6HvgKw98rcPaIEEpovNIQMSDy9FBQLeCbsdh2YpTiCZI0puAb7zwpRtW+WBjAIQYxfEv907IVtSqFMS3Sz+9sNEPGzDaahds8sFaixG4UAEWe9DB6bSqxGNTqf38LI5m4RKW+fnzcOz6vxqkJg50wwxRq1x0S1R1e+wqyiekJCanTNStXvhivY/Xlndy29+/Z+EDq7j50VXc/cx3PPHmRr7YYEz4Nqcxkdpt8NpbK1i6/DvluBY/VqcQjhCWz4sr4MfiCvrpdPhunZ9nX1zG6nUONXllgjv9AUV8FhEbMoE74eNv4dElLha9tJVL7vuUW55cxd0vruHFZVbafLBBootSbeCBDVvgqWff5bu1kt4gascgTXsAPv8enn3ra/791WbWCml5QMjkKxc8+I6Txa96ueVluO0fcPvbcMcSeOJreN8CW8SiUw53XZmWTo/ks3lp98JKO7z4Odz5Fix42sfVT/n54wsBHngX/vW9Qb7irHdLoq88WFxOtlo7FS4bdHh7JfzpJbjwAZ0LHoQFT8Edrzl5ayVsCBh9XOuD17/0cNcr67nluS3c8qKPG1+A65+Hm1+B29+EO16HP7/iYOl3hqoWhe3GjcXTZqTUmObnrj9Rw+xhWKQWzSwuOIWWE5L8McnNEt+Q1yNRPiM51uN14ZHVJqTO0g/rdfiXTLaHl3DC3Lu58s4PWPTE9/zlxY1cc8cSLrz2WV5Z0qbURJtE8TywxQJzr3mWmx9YZhCZ10hlsKhAg1spMCEeq0T+fPDRF52c9Ic/8erydYocbMpv5lNRPIeYuh54damFede+yklXvsxVD63glqe+556XNjL3hleZf8OLfLUeFRAQ5SfH/PfHLs658H7e+2CzUnqdDhBC+6oTFj+zjrMXPsFLy9YpU1HU1Ro/vN8Jxy/6nH3mf8Kks5ez19yPmHzuP2k94yX2X7icC574nk/axeRV/nc6Xe246FTXvmw9/PHZNg6/4n2mz/0X085/j/3nf8K0s5ezx+lLOX7RBu78J3wnSlDcXW6JMvuwe71K8T7zmZc5N33AAfM/ZcoZn7D/vJUc9IfP2fesl7n47mV8sM6hFKmQ759f+YrfXfAIe531d2ZcuJzp81Yy5ewt7HV+B3ue/QV7nP4WB897jQffsbPWC5tFEcvDSZe8u1BuoGl+hskbu/RuYZFaNNvbcjdsAYtar0uy1qXERnILpExHlsDpEJ+TU3xOHty2TkVqy21w3I3/4uJFb/Hup06laGRiiTLpcIPFGVRAKqJoFGyL2Tp74bssfM7CFvFLCTH5vWwNeLD6HLj8Yp56DZ+VBz74xspRVz3Oo5/pyowS8pPcMIvDp/xmzy0PMHPeG1z1l7WsssFmj5EWsVWHjVbY2AGdVmNZJafFid8Pb3wIZy94i9eXbaTTb/jiZIJf+dgqTrnlHV75j1X55VQxvE/MTQ+fOuDEe9cxcf7XHH39Ws6/q51zF3/LufesY8oFH7DXhcu57IHvFQlt9QtJrKfDu1L5wOY9sJ59Ll7NnvM+5YjrvuL6l+0sfKaDKx/1ctiCtdTM/5KWBZ+x8B0761VUFPStFmV2fuuFWXf8m8mXL2W/S5ZzxWMern5oK1fc8z3n3PQJi59YrVJSPLqhRF96fw1XPvg2F97/ARc/uIGDL1zB9Lk2Dr9a5w/3reWS+5ex8K8f8urHFjbbjfsjOXGqjvVHyzHtyBTdpWfwTupcNAuXXklqVtpViY6Qmk9sS5sUafvZGvCxRVzMfh8+8UB7fSpD/urnLMy4fCkvfuinQ7LhRW35xedmx+2y4XbquF0+ldSrS36CaytiMs689lMuex62SF6ZrHjhdWPxu3FIYbdPIpw+5RuSAvJl31g5ZMHz3P8FbAS2OL0qXULy4L62wNm3LufURStYuhHapRZTlzw5Py7ph0cSegNqnTiJIAYcnfgD8NYKOObSf/Lk0g1K4axywr2vbOL4Ba/y5uqgE15IYisqYdeHky+sPmbeuoa6877mnPsc/McO3wXgnU3w+5u3sucl33HctV/zhUUSeMXHJ8m4Nt762sLvrlrH2PPaOeaWLTz0EayUJF/pvx3uWwrTFm1lzOUrmPnnb1iyOZhE7HBjdcPSTTDl6iWMXfAl5zzh4d9C1EH/3EffwwqJYwSgY6sdn6SliKkd9N291w5nLW7nd5fqnHobrBAfG7BOko2N/GSVhCzBDxX4CLoddkRmod93Em/s0oeNZuHSK0nNpmoRpYZTVkQ1woiyQoSQVZvELAN+PBJqFL/UVph9w384+c41yuEtHCgrt8pCk5KOEHB48UnwT7LlZa01kRJOJ2LqHXHNCq58BhVsEDkiBdhq+R0p2BYfmygHSdUQpfa1lcOuepkHPjOifqowQXLm/PDCp3DoJc9z/xKLUomSRKtW0NWlWHwzHn87Xr/kp8kSQBIF8Cifmvi2Zl29lJe+8LPaB/e84uHkS//J28v96ndJgpXghIooOFy4rOv4ziZKzcm4izdz+p838ZmoQnHcA8c9DJOv6uTQi//DhxtBfGASOBDFuvhJC3ud084+853c864RKJDKAQlWyDWsssClT8O0y75n33lf8fz7wfMGy6w+aofpC7+m8bLvmPOAmyVOWB80u8UUF1/kFrd4xfxYHTaVLygmsyi+JVtg9vUrmHT295yy2Md/bMGKBQmUuP102BzYrFaVxCtJ1CGy6unnLs0+O6lzvY7UolmayhgwagDFr9KN1OwoFdYWCKiqAfHWS8LmR1/AkVd9yqJ3DGWwxe3ALcvvyGyWGiC7LMFjrF4hZCeqSVaw2OqEI6/5kgVPG7llErZUCaCyIobNqDQQP5nyTXngo6/s/P6KN3n4E2jzq5QvRaoWG9z2cifH3PAOS7fAJkmslwigqjBow+ndiNO/ReW+OXSXqjyQ8itRh499CsfdtpJHP4V739U5/vqv+Ou7KJNaKg1UNNUZQBd2lRIsZzurrHDgdetpuWgr5z/k40OLQVDvWeHwe6Fm7mqOXfgfvuw0HPCbfbDOAZff2cHe59s5dIGL11cb6SYdbQ487Ubuhaisvy6Fgy5axYxz1nDPM5ISAnqnBZfTIMjzH3XRMO9zmi74mDmL1/GXf/hY3QEdokwRk9vBBtsmdN2GL6CzxWuY6p+44f/uWMPkeWs55wH4T6eh0Dokj9DrQg9I3FTRK17fDxcc6Amx7STe2KUP2+tIbZe+Gz3onFr1VZXKyDI3QaVmNwqt2wOiXuTFAkYOwdtLvcw47z0e+tRITegIbEUXSSaV2w6pAXKqZXIkONDp9dEpSba6my0eOPLaD1nwrK9LqfnFS6/M3YCa0BKRkzQHMT8/WuFh5mVL+OtHchyjDEqIVfLDrvpbO8fcvJxlm3UsUuPoDS5rJCvS+r1Y/F46/D46Al6k+Krdb/j9HvkWDvrjZo6/83uOvvkL9rr4I17fEswBk1pXuUTJKWtzK5NOIq4fdMCs+z00XGLhqEUBFj4H1z0LJ93RydjLNrHHVau57qlVfB/MJdvgN9Ip5t22linnr+GgBatYsklKsIJJr0L+UvzphZc+hoMv/JSD5n/H1Q84VJ2nLiFde0CpuddXwWl/2czeV69kj4u+Zd/zvuTcm9fx9LseNoqSlvonqcOwtSu/QYfbplTkhw6YvehrGs/+hjPu9/KtBGtwY/VKPqBFVRm4PDY8nk5stjbc8j4HM/r5szMlmoVLWObnz6IRBT8aa90bq1ZItrzYUFJsHVo9wuX1YpUIgA7vfwL7nPYPHv7Y8NPIq0E8ItUcLpUBKgmsMkFkwcZ2v067X4qnPWzwwpHXLWXB83aVSyXF5bpa68urzFav10+bT1dJ7sKRH67wc/il7/Poh0Yuml/kmEuKueGKxzuZs+hz3vteV4rFIcX1Qmy+gKqfFP+SSniVFJBgLpkEMh75Bva55ltm3bqC694IcMLd3zF70XI+kWRi8Tlt3YpPnG9+EEUoqbgfdP5/e1f+ZVV1pf+m/i0ry1Zjd6eTrOgybXe7nFpEe2knRCU0BhQZpQVpE22JI21Qo0sTFNFIkKXMo4BIFRRzMdb45jvPX6/vnCrs/CJwuUWdU2/rqgXUe+/cfb9z7vf22WfvbwN3r+rgb54cxg8X1HDbvAu4dc4R3PzLnbh96Uk89vuz2DesPaGhLFQ5ZLzW7FdO48ZZJ/Cz5f044HF8en5A2ihQdCgBBHx2CLjzmX785Ol+zH+3pfhdVamHOYKxLeOOQWDlFmJ3CrfOOYt/mNGDf5m7Ex/scJV9jkd1ALq9MbzAAT3FAw4wbeVZfO+J83j8nUJtdWNWbyRtREreKFJb1jShm6wlmoTULHhQS5pYitRsZnHixOJmpnNQjodihDzrp8dG+epWkajge6sVqm3miYvAXXN34PWtmtSobkFPSQshthCkLThpjHZeoI5U/fAQYSAD7nl+O5b+paHyq+ig6aJrqkR4CIsArcxRHg1J7evjwF0L9+GP3+itFrIUJDZWEPxuIzD9v/uw7bguAldqFiH1x7S8jlLOiBJVHK6SYmNgNAA+7gPuXr4Lb+92VDLsF+eBuxatxbNrz+E8d8+s8QxcFEEGt5mrQv1jHeC+l4dx46JzuGP5BTz6eg2L36vjtfUtbDoCnKzr1Ag6uLXEV4mvjLktfW8Afz93CLf+VxNr+4FzfJ3xtixScTdWB7y0BfjR4iHc8ORRPLsx1vHBwocfJGjUE3V9xs948ts3Ary9HfinBedww6w+PPLGAPaMssqp0PFOP4bv+oroekPgkVUtfG/uEB56NcB5lnlkuRLHpMYdlYKpQBJHKTKVbC0VBSX5woqPlSI1m/fbmtS00KImNS0jzXpAChGyq5EbMxytnbFzNeDBRVvwzHsDOMts+0KnFFCfy81acDIHHW47uZVk7SaD2kyziIFpz23F8s9GMTBWiUBPjqTZzEO4TARN2whzyksD+0lqi3bhg0M6SZeZ+tRCI3msOwjcPusLrNsNVZDO7SpFEZkkrIQpVU6dPv1MKcvt6Iz/LSeBaUs+xYaDTdQKYCgD3t9Zx8/mrMMfD+iUEObpZerkQx9+nKgDD6wcwA8WHMeMN2vYMapjiTwMaDPyzxNFn5UOPOSI0WY3KACrNjRx28JR3DRnBM9+DhwDFHGe4SFDok9Cf/E2cNP8Ifxk6XGsOQ2FS7Nw1D2pww+OycOUsQOIYwmw4BPglkUt/OOiU9jYrw8mVMhANXDJVQXF7hFg2kuDuGHeEH65OsNF7unpGUc+gphlYvqLgtJFvsutJytJrixHje/rxv9sdly6lNRY0M6FrVU5cjYOiSJQoZU9J7mMW06k/qyFwPPv9+GRpZuxZouvtMD4kPg8IQXFC6kQoRwDVdNNgYygqcNI/7F4G176tK7iPnzw6UCwnInbNf4ZJL6ql0xzYM/xBHcu3oAPj+oHl6eozU6gSK2vBsx54WvMWLILB8/rlA7Gv9oJFWGpEaLlduilsZwzoZJFAnx5KMeMpZ9g9yEqYwCDDW3D0vdO4L6F67H7tN7q+hQ/Y3JwrcDFNvDI6yO4ad4RzFw9qE4SGR8MoxR52EHqtVVtKMNk1IBzw4SHxNh5DLj/uSHc8utB3LbwLF7cDuwtNLntc4EV64EfL23hb+eewYxXz6hUEVXexbZ4APadiPHux0M4MwrUY+0V7/KAp/4MfH/2BdzzXB1ffqNxDQkklXoTpr4ABxrAz98Ywo1P9+Ox1R4GWgy55SiyBH4cqcRlChGodI6QHrqQ2uWI2mbHpUtJjbJD/KYmqY01GY59BDnz19pwgkjJDXVCT8V9jjaB+b/bg4d+9Sne/rCGw+eAU3Xg6EiI4QjYf6SmSphqZCv202wBjgfMWr4XKz4YxJ4LwMER4FAN6KkDe4e010RJIib9UlJo7ykPdz+zBmuOxMrzYW0jBR1JoA7TOna5mLViD6bP+ws+P+jjm4sFTneAky1gX7+HnnPUP9NeDnPvOPbGgx7+/el3sHnXBZWMy0MB8tdRD5jzyg7M+c1W9JzRCiQso6J7emIIeOjFE7h59leYvaofxx29TU2zAHnsIA1ZuJ6qPLg8S+C2WyoHjNvrt3cDdyw5htvnncKdS0/i3he/wi/e7MPMV0bxz0+dxM2z+3Dvb89iHQ9D+MXB3L08UdvTLw608PCTX2D63J349cu9mLXqMKa9fBg3z9mBW2b24Ld/AobJgmRQVmG4jIlman6OOMDDL/Xg+7O24fH/PYfhNkktQ8acwDQEE5QZd2S2CzXphNQuR2lA15Gaza4pp5P9Nb/VUhuT605chFkdQdaCHzIBl6TSxmjgqBPK44zx/KmJmfO+xt2P7ca814bw8LIvcd/T72Dak68pglE5bLn2fs52gBnPb8OdCzdj+ooduP/Z7bh/8X48tPQAfr58K9bvbcOni+Kz/hHYeugMHlz2Fj7sHVW1lZdkjpj2oDNH8OVRYO4bvfjXJzbgwUV7MPM3x/Hoim8wff56rHj3axypaYWdDsUZM+Dz423MWvkRNu45rYrkKapYSzvKS9x8tI7/fGYD3vroAs57uiic9tMrfHRlD+54ag+WvNmPo6NAg8nGPBXmvbGoPmOjFxdZ2kRBXTi3rZSBGEf7wwEXM17ow70LevDjmZtw6+PbcM+vevBvTxzCk6svYP0JXbJEbmp7MTz2hQDQcybFwleP4K6FB/HD+Ydw4/wD+LvFu3Dnsq+w7K0R9PQxCAgoJSKmAoYpPHaLB3C4Djzx+g78dN6nmPP7g6hRCSmIEeeu6pXQZGUGbc/YL1W6SV2e0rqQ1K4EFJPfozsvjXdf0rJDMfW30rrS+aLQYatDMUcme6YYdNn/UsfK9vYCGw8AqzcCb23xsek0cLgJFbOqBRE6UaiK4BmD2tCTYe0hYO1h4JM+4OODwMf7gbV7gSMDOhG3oCvGTPkUWPf1afSxpGcsBsQHtuXn8OgNjQXemTfGa67ZA6z6HPjDVp2ce2w84VTpv1GKCOgLgD8fGcSp4VQpgbgs1IeHRuqqbe03PcCm7S7OMV2C2f9pogL/W44BH23PsLsHaFBBhDliha6mYM5YQKXZsI4wYk5/G3mnjk6zocif8cPTPvDVOWDNbuD9zcC2A0DvGeCkqxOLSZ5hFqLjJeoQmdtCHjYfrgGbBoA3eoEX9gNv9QLbLgIXG7pbFdkv6GiV3TDNEOQBnDzGYABsOtrC+/sb2NqfgSpDaRAhKnTzlw6loHL2XkiUUMH4F9qVxtVMXssTZZvNjkup7edEAXm9xmUTEC5s3QCFAXctP8SWbUlCBVuAVVJeEoCiPawXrLt6O6jUKTJg1NEpEIN+rFQxqPihygSCABllMpjKFuit4yhltElQPJXkOIXW52dwvOMkaDWYJgoMhfp96rAhowwQJaipgOghSwKVeEsZHwb9x+NzjIlz7MGQsSMfXsjSBn1owNcGWLFAc5gDS0Feukj8ncofo6fI+s1Y5bepoD9T9HhJnlDQhSpSdOChjjaCIlSBdzeirBG9tTpQsOA0QeTFKjZ2MSnAOCSJi44opYGaTBdhnwRuqVUsMEYzZAcE7dW2mCNIvP9fzJH3Sf3blMgo+fQMo4gwigTNmPKaJNcAXs6wgb4eT1g5PqXT04Cn2K7qZsWuWGFGMU6d38f5vlJC69aDguv1LE7EdUqRms0sThC1SGSqVDlUx6ZYd2iiDDab/QZeoWJGjK2NNJhxpXsRtMIcDTdTAWpyB8Wq2WeAirZx4KNw2jqSTeKgiCJ7UypNfl91QVIiZiwC7wBDbf0gMsjvdRzklA+nLFFKBQsfTuKjxQefOXFqIA/DQaAIjVtTHlgONlw0Ah8xpSmLDuK0pVnLSZREdp0nniymZ4zNATKXBwnsql4gZaCOrEcNt6KDWlaHx05RToGgw7w9Ml+AyBlBO+ugmVHn10eW+fACX5FwJ2jC9ZgIWyhM6kmKOju5R5QcT9FyXVB9V1ONo9R3a1FIzkUrYLOUAl6ew4kKcMvMSzYCF+2siZiZdNkoUv8iAmcATlLDAJo4D2rSaemjdkQVYVZ4uEjZRCbOVPlXSuluJR5J0nMQpS4SzpEis6s7JBBSmwjamdgxS5GazUFERWqqIJykNpYSwbpMnmBGsfqhRLQ/pgRNQkv5kHoe/GIUKRxEfg63nYEPFR+xeugqz4FpFnSLAjdXn2f5D0uRXGb7hySuEFGT/oQPN2pgOA/QQIqCORokQXpN9QKZ+p9k5SOmS+W5SB0PbhwrOe6QmappjIKDq74FEZxOHUnYQE6SoQtI+SOSGosYyJx0bRAjSlto+dTq1fzbcNgbyoWnkooJAkk/RcykXG5lO6mWGacDGFIiuwW2AWQXLVZeOCFt1OVZI5EO3DPRWLlhvEieIfVrcJwhNBKmzGhT2GAlThy4QR1sNkN1X37Mi1KEtJ+fVR2zCmRZoFR8I8qcs4EK62ZVhQHFyQsU7AkRR0pZRVVEMZna001kvCxCRiFLdusa6+qu2wVKSsd3UYvNjktXkhrzwnj6Sf005amNkdp430ymCjBxnVtQbkXjoACJJMQQYoyqtnl0oNhmpBk7aETUs6XDkiMMYy2Lz7IpJ9f9BNjjkkTERimhgyIaRlrUUStc1NluisefToqcW0Ju/ZIAHX8YftREnofIvQBFkCArCkRphIKeh9dENlZ+5HVcJGRQSnd3amqvxy7n42VYTOfwvVhtF/1sVG3ZRj2XZxRoJzEaGTXRXHidNrKI27ZEt5ILc3RahTpJZUVYGIbIs0AV07teqLy1gLGtyFdY1MJUdZBiTWfhjXdbj1UqSFGw5R633Xw/c8hUbz/4/qiSPXcCVgCwu3uBggTvAVFbCwVQRpx9GNjEhp2++B3Ae/IoJ06nuFGHypSOKQseKReYJ8B8nU1nmHCbs4mMkNp38dhfvWaz49KlpJYhZPKl6pLOwnZdMqVa5amkTP6bVQfjv+eWhY1TPO3djb2HcTnVfT1hfInf/DpWw8/pBsZ6DL7G93L7M94YWWW6Z7ESSOTvU9XFig4H86goUMmGx4z36a7lJAGOz87yup8CeypwzHTs59vfp1GiGhh7qZYW19UTvN9wrFMVCY42s2lwqtIe2AtV92rgNZKx3phsQFwo6W5+EYzHHi/dp4pN6gbM/Mx4+Rn7qNJe3dRZ3zObIbOzOt/zreIwvTXepz6NHk+z0c2a9UGKxiNR7+G9cq4uYatyDYkdO7QTD2LA61L8k6opusGOaqyjmjrr+byaeFq3bj+7jtRsdk3VN7t6OK58+3G1D4G8f2ph+1cuTJf8o+tIzfZ5FdKZWqQz0fNp+3ovY7/Njkup7WcZkEz6zEQ/BDL+1CJNk9au2HJ5BEqRms0sTkiEdKYW6Uz0fF7+MZJ3mIRAKVKzeb8tpCaEdrUkaNIDe71ssdlxEVKTQwPxXC+zBq4XkZh0HZsdl64kNZMWj9giCJiIQNeRms2uqYkLSGwSBExDoOtIzbQJEHsEAUGgWgRsdlxKbT+rhU9GEwQEAUGgOgRKkZrNLF4ddDKSICAImIhAKVKzeb9t4iSITYKAaQjY7LgIqZm2msQeQcAABGx2XITUDFhAYoIgYBoCXUdqNrumpi0esUcQMBGBriM1EydBbBIEBIHqELDZcSm1/awOOhlJEBAEBIFqEShFajazeLXwyWiCgCBgGgLEO/PMAAAEt0lEQVSlSM3m/bZpEyD2CAImImCz4yKkZuKKEpsEgUlGwGbHRUhtkhePXF4QMBGBriM1m11TExeQ2CQImIZA15GaaRMg9ggCgkC1CNjsuJTaflYLn4wmCAgCgkB1CJQiNZtZvDroZCRBQBAwEYFSpGbzftvESRCbBAHTELDZcRFSM201iT2CgAEI2Oy4CKkZsIDEBEHANAS6jtRsdk1NWzxijyBgIgJdR2omToLYJAgIAtUhYLPjUmr7WR10MpIgIAgIAtUiUIrUbGbxauGT0QQBQcA0BEqRms37bdMmQOwRBExEwGbHRUjNxBUlNgkCk4yAzY6LkNokLx65vCBgIgJdR2o2u6YmLiCxSRAwDYGuIzXTJkDsEQQEgWoRsNlxKbX9rBY+GU0QEAQEgeoQKEVqNrN4ddDJSIKAIGAiAqVIzeb9tomTIDYJAqYhYLPjIqRm2moSewQBAxCw2XERUjNgAYkJgoBpCHQdqdnsmpq2eMQeQcBEBLqO1EycBLFJEBAEqkPAZsel1PazOuhkJEFAEBAEqkWgFKnZzOLVwiejCQKCgGkIlCI1m/fbpk2A2CMImIiAzY6LkJqJK0psEgQmGQGbHRchtUlePHJ5QcBEBLqO1Gx2TU1cQGKTIGAaAl1HaqZNgNgjCAgC1SJgs+NSavtZLXwymiAgCAgC1SFQitRsZvHqoJORBAFBwEQESpGazfttEydBbBIETEPAZsdFSM201ST2CAIGIGCz4yKkZsACEhMEAdMQ6DpSs9k1NW3xiD2CgIkIdB2pmTgJYpMgIAhUh4DNjkup7Wd10MlIgoAgIAhUi0ApUrOZxauFT0YTBAQB0xAoRWo277dNmwCxRxAwEQGbHRchNRNXlNgkCEwyAjY7LkJqk7x45PKCgIkIdB2p2eyamriAxCZBwDQEuo7UTJsAsUcQEASqRcBmx6XU9rNa+GQ0QUAQEASqQ6AUqdnM4tVBJyMJAoKAiQiUIjWb99smToLYJAiYhoDNjouQmmmrSewRBAxAwGbHRUjNgAUkJggCpiHQdaRms2tq2uIRewQBExHoOlIzcRLEJkFAEKgOAZsdl1Lbz+qgk5EEAUFAEKgWgVKkZjOLVwufjCYICAKmIVCK1Gzeb5s2AWKPIGAiAjY7LkJqJq4osUkQmGQEbHZchNQmefHI5QUBExHoOlK7a9kDl+bhlc9WgQCM/zz/0f/IawCmEi53L3lAza/MrV7aU2luv+u5vfQgW/aXUp6aZfco5l4jAr29vdc4gnxcELh+CAipXT+srb2SkJq1U9eVhgupdeW0X91Ne553dR+QdwsCk4iAkNokgi+XFgQEgeoREFKrHtMpN2J/f/+Uuye5oamLgJDa1J3byu5MYmqVQSkDXQcEhNSuA8i2X0JIzfYZ7C77hdS6a77lbgWBKY+AkNqUn2K5QUGguxAQUuuu+S51t7L9LAWbfGiSEBBSmyTgbbqskJpNsyW2CqnJGrgsApLScVmI5A0GISCkZtBkiCmCgCBw7QgIqV07hlN+BCmTmvJTPKVuUEhtSk3nxNyMxNQmBlcZdWIQEFKbGFyn1KhCalNqOqf8zQipTfkpvvYbHBkZufZBZARB4Doh8H9wRIXTkEh58QAAAABJRU5ErkJggg==;" vertex="1" parent="1">
          <mxGeometry x="418" y="673" width="218.45" height="193" as="geometry" />
        </mxCell>
        <mxCell id="ys190QE65R-xxRE4n0ma-39" value="&lt;font style=&quot;font-size: 17px;&quot;&gt;&lt;font color=&quot;#ff0000&quot; style=&quot;&quot;&gt;Provide the Webhook Url for Parcelperform, &lt;br&gt;this Post API should verify the payload&lt;br&gt;comes from parcelperform platform.&amp;nbsp;&lt;br&gt;&lt;/font&gt;&lt;span style=&quot;color: rgb(255, 0, 0); background-color: rgb(255, 255, 255);&quot;&gt;expose this API in internet and use &lt;br&gt;whiteList to protect this api&lt;/span&gt;&lt;/font&gt;" style="text;html=1;align=center;verticalAlign=middle;resizable=0;points=[];autosize=1;strokeColor=none;fillColor=none;" vertex="1" parent="1">
          <mxGeometry x="64" y="440" width="350" height="120" as="geometry" />
        </mxCell>
        <mxCell id="ys190QE65R-xxRE4n0ma-42" value="&lt;font color=&quot;#ff0000&quot; style=&quot;font-size: 17px;&quot;&gt;Push the payload to Herbalife Hub by the webhook url&amp;nbsp;&lt;/font&gt;" style="text;html=1;align=center;verticalAlign=middle;resizable=0;points=[];autosize=1;strokeColor=none;fillColor=none;" vertex="1" parent="1">
          <mxGeometry x="355" y="605" width="430" height="30" as="geometry" />
        </mxCell>
        <mxCell id="ys190QE65R-xxRE4n0ma-43" value="&lt;font color=&quot;#ff0000&quot; style=&quot;font-size: 18px;&quot;&gt;*in this api, we can persist &lt;br&gt;the carrier information&amp;nbsp;&lt;/font&gt;" style="text;html=1;align=center;verticalAlign=middle;resizable=0;points=[];autosize=1;strokeColor=none;fillColor=none;fontSize=17;" vertex="1" parent="1">
          <mxGeometry x="557" y="460" width="230" height="60" as="geometry" />
        </mxCell>
        <mxCell id="ys190QE65R-xxRE4n0ma-44" value="&lt;font style=&quot;font-size: 15px;&quot;&gt;firebase push notification&lt;/font&gt;" style="endArrow=classic;html=1;rounded=0;fontSize=18;fontColor=#FF3333;entryX=1;entryY=0.75;entryDx=0;entryDy=0;exitX=0;exitY=1;exitDx=0;exitDy=0;" edge="1" parent="1">
          <mxGeometry width="50" height="50" relative="1" as="geometry">
            <mxPoint x="440" y="259.9999999999999" as="sourcePoint" />
            <mxPoint x="180" y="257.5" as="targetPoint" />
          </mxGeometry>
        </mxCell>
      </root>
    </mxGraphModel>
  </diagram>
</mxfile>
